<?xml version="1.0" encoding="utf-8"?>
<!-- Generator: Adobe Illustrator 24.0.0, SVG Export Plug-In . SVG Version: 6.00 Build 0)  -->
<svg version="1.1" id="Layer_1" xmlns="http://www.w3.org/2000/svg" xmlns:xlink="http://www.w3.org/1999/xlink" x="0px" y="0px"
	 viewBox="0 0 1404 1404" enable-background="new 0 0 1404 1404" xml:space="preserve">
<g>
	
		<rect x="4" y="1208" fill="#C9DAF8" stroke="#231F20" stroke-width="1.9722" stroke-miterlimit="10" width="194.3" height="194.3"/>
	
		<rect x="1208.4" y="1208" fill="#C9DAF8" stroke="#231F20" stroke-width="1.9722" stroke-miterlimit="10" width="194.3" height="194.3"/>
	
		<rect x="1096.2" y="1208" fill="#C9DAF8" stroke="#231F20" stroke-width="1.9722" stroke-miterlimit="10" width="112.2" height="194.3"/>
	
		<rect x="984" y="1208" fill="#C9DAF8" stroke="#231F20" stroke-width="1.9722" stroke-miterlimit="10" width="112.2" height="194.3"/>
	
		<rect x="871.7" y="1208" fill="#C9DAF8" stroke="#231F20" stroke-width="1.9722" stroke-miterlimit="10" width="112.2" height="194.3"/>
	
		<rect x="759.5" y="1208" fill="#C9DAF8" stroke="#231F20" stroke-width="1.9722" stroke-miterlimit="10" width="112.2" height="194.3"/>
	
		<rect x="647.2" y="1208" fill="#C9DAF8" stroke="#231F20" stroke-width="1.9722" stroke-miterlimit="10" width="112.2" height="194.3"/>
	
		<rect x="535" y="1208" fill="#C9DAF8" stroke="#231F20" stroke-width="1.9722" stroke-miterlimit="10" width="112.2" height="194.3"/>
	
		<rect x="422.7" y="1208" fill="#C9DAF8" stroke="#231F20" stroke-width="1.9722" stroke-miterlimit="10" width="112.2" height="194.3"/>
	
		<rect x="310.5" y="1208" fill="#C9DAF8" stroke="#231F20" stroke-width="1.9722" stroke-miterlimit="10" width="112.2" height="194.3"/>
	
		<rect x="198.3" y="1208" fill="#C9DAF8" stroke="#231F20" stroke-width="1.9722" stroke-miterlimit="10" width="112.2" height="194.3"/>
	<rect x="1096.2" y="1208" fill="#B99664" stroke="#231F20" stroke-width="2" stroke-miterlimit="10" width="112.2" height="54.4"/>
	<rect x="871.7" y="1208" fill="#B99664" stroke="#231F20" stroke-width="2" stroke-miterlimit="10" width="112.2" height="54.4"/>
	<rect x="535" y="1208" fill="#6DCEF5" stroke="#231F20" stroke-width="2" stroke-miterlimit="10" width="112.2" height="54.4"/>
	<rect x="310.5" y="1208" fill="#6DCEF5" stroke="#231F20" stroke-width="2" stroke-miterlimit="10" width="112.2" height="54.4"/>
	<rect x="198.3" y="1208" fill="#6DCEF5" stroke="#231F20" stroke-width="2" stroke-miterlimit="10" width="112.2" height="54.4"/>
</g>
<g>
	<text transform="matrix(1 0 0 1 225.5967 1289.6748)"><tspan x="0" y="0" fill="#231F20" font-family="'Poppins-Regular'" font-size="13.987px">BOSTON</tspan><tspan x="9" y="15.5" fill="#231F20" font-family="'Poppins-Regular'" font-size="13.987px">DRIVE</tspan></text>
	<text transform="matrix(1 0 0 1 236.9189 1386.916)" fill="#231F20" font-family="'Poppins-Regular'" font-size="13.987px">M150</text>
</g>
<g>
	<text transform="matrix(1 0 0 1 336.8311 1289.6748)"><tspan x="0" y="0" fill="#231F20" font-family="'Poppins-Regular'" font-size="13.987px">PHOENIX</tspan><tspan x="10" y="15.5" fill="#231F20" font-family="'Poppins-Regular'" font-size="13.987px">DRIVE</tspan></text>
	<text transform="matrix(1 0 0 1 349.4326 1386.916)" fill="#231F20" font-family="'Poppins-Regular'" font-size="13.987px">M130</text>
</g>
<g>
	
		<text transform="matrix(1 0 0 1 445.2368 1356.7959)" fill="#90278E" font-family="'Poppins-Bold'" font-size="125px" letter-spacing="2">?</text>
	<text transform="matrix(1 0 0 1 449.3071 1246.5244)" fill="#231F20" font-family="'Poppins-Regular'" font-size="13.987px">CHANCE</text>
</g>
<g>
	<text transform="matrix(1 0 0 1 557.4795 1289.6748)"><tspan x="0" y="0" fill="#231F20" font-family="'Poppins-Regular'" font-size="13.987px">VERMONT</tspan><tspan x="13.8" y="15.5" fill="#231F20" font-family="'Poppins-Regular'" font-size="13.987px">DRIVE</tspan></text>
	<text transform="matrix(1 0 0 1 574.0117 1386.916)" fill="#231F20" font-family="'Poppins-Regular'" font-size="13.987px">M120</text>
</g>
<g>
	<text transform="matrix(1 0 0 1 674.9556 1246.5244)"><tspan x="0" y="0" fill="#231F20" font-family="'Poppins-Regular'" font-size="13.987px">BEVERLY</tspan><tspan x="-5.7" y="15.5" fill="#231F20" font-family="'Poppins-Regular'" font-size="13.987px">RAILROAD</tspan></text>
	<text transform="matrix(1 0 0 1 684.0957 1386.916)" fill="#231F20" font-family="'Poppins-Regular'" font-size="13.987px">M200</text>
</g>
<g>
	<text transform="matrix(1 0 0 1 765.8379 1254.5254)"><tspan x="0" y="0" fill="#231F20" font-family="'Poppins-Regular'" font-size="23.3116px">INCOME </tspan><tspan x="27.9" y="24.9" fill="#231F20" font-family="'Poppins-Regular'" font-size="23.3116px">TAX</tspan></text>
	<text transform="matrix(1 0 0 1 782.8477 1386.916)" fill="#231F20" font-family="'Poppins-Regular'" font-size="13.987px">PAY M150</text>
</g>
<g>
	<text transform="matrix(1 0 0 1 900.3809 1289.6748)"><tspan x="0" y="0" fill="#231F20" font-family="'Poppins-Regular'" font-size="13.987px">KANSAS</tspan><tspan x="5.8" y="15.5" fill="#231F20" font-family="'Poppins-Regular'" font-size="13.987px">DRIIVE</tspan></text>
	<text transform="matrix(1 0 0 1 912.7246 1386.916)" fill="#231F20" font-family="'Poppins-Regular'" font-size="13.987px">M90</text>
</g>
<g>
	<text transform="matrix(1 0 0 1 1115.5107 1289.6748)"><tspan x="0" y="0" fill="#231F20" font-family="'Poppins-Regular'" font-size="13.987px">SAN DIEGO</tspan><tspan x="17.6" y="15.5" fill="#231F20" font-family="'Poppins-Regular'" font-size="13.987px">DRIVE</tspan></text>
	<text transform="matrix(1 0 0 1 1138.8408 1386.916)" fill="#231F20" font-family="'Poppins-Regular'" font-size="13.987px">$60</text>
</g>
<rect x="198.3" y="197.8" fill="#C9DAF8" stroke="#231F20" stroke-width="1.9722" stroke-miterlimit="10" width="1010.2" height="1010.2"/>
<g>
	
		<rect x="1208.4" y="197.8" fill="#C9DAF8" stroke="#231F20" stroke-width="1.9722" stroke-miterlimit="10" width="194.3" height="112.2"/>
	
		<rect x="1208.4" y="310.1" fill="#C9DAF8" stroke="#231F20" stroke-width="1.9722" stroke-miterlimit="10" width="194.3" height="112.2"/>
	
		<rect x="1208.4" y="422.3" fill="#C9DAF8" stroke="#231F20" stroke-width="1.9722" stroke-miterlimit="10" width="194.3" height="112.2"/>
	
		<rect x="1208.4" y="534.6" fill="#C9DAF8" stroke="#231F20" stroke-width="1.9722" stroke-miterlimit="10" width="194.3" height="112.2"/>
	
		<rect x="1208.4" y="646.8" fill="#C9DAF8" stroke="#231F20" stroke-width="1.9722" stroke-miterlimit="10" width="194.3" height="112.2"/>
	
		<rect x="1208.4" y="759" fill="#C9DAF8" stroke="#231F20" stroke-width="1.9722" stroke-miterlimit="10" width="194.3" height="112.2"/>
	
		<rect x="1208.4" y="871.3" fill="#C9DAF8" stroke="#231F20" stroke-width="1.9722" stroke-miterlimit="10" width="194.3" height="112.2"/>
	
		<rect x="1208.4" y="983.5" fill="#C9DAF8" stroke="#231F20" stroke-width="1.9722" stroke-miterlimit="10" width="194.3" height="112.2"/>
	
		<rect x="1208.4" y="1095.8" fill="#C9DAF8" stroke="#231F20" stroke-width="1.9722" stroke-miterlimit="10" width="194.3" height="112.2"/>
	
		<rect x="1208.4" y="197.8" fill="#A5CD39" stroke="#231F20" stroke-width="2" stroke-miterlimit="10" width="54.4" height="112.2"/>
	
		<rect x="1208.4" y="310.1" fill="#A5CD39" stroke="#231F20" stroke-width="2" stroke-miterlimit="10" width="54.4" height="112.2"/>
	
		<rect x="1208.4" y="534.6" fill="#A5CD39" stroke="#231F20" stroke-width="2" stroke-miterlimit="10" width="54.4" height="112.2"/>
	
		<rect x="1208.4" y="871.3" fill="#008ED3" stroke="#231F20" stroke-width="2" stroke-miterlimit="10" width="54.4" height="112.2"/>
	
		<rect x="1208.4" y="1095.8" fill="#008ED3" stroke="#231F20" stroke-width="2" stroke-miterlimit="10" width="54.4" height="112.2"/>
</g>
<g>
	<text transform="matrix(0 -1 1 0 1290.1006 1167.9326)"><tspan x="0" y="0" fill="#231F20" font-family="'Poppins-Regular'" font-size="13.987px">SALT</tspan><tspan x="0.1" y="15.5" fill="#231F20" font-family="'Poppins-Regular'" font-size="13.987px">LAKE</tspan></text>
	<text transform="matrix(0 -1 1 0 1387.3418 1171.2334)" fill="#231F20" font-family="'Poppins-Regular'" font-size="13.987px">M350</text>
</g>
<g>
	<text transform="matrix(0 -1 1 0 1387.3418 1074.1709)" fill="#231F20" font-family="'Poppins-Regular'" font-size="13.987px">PAY M200</text>
</g>
<g>
	<text transform="matrix(0 -1 1 0 1290.1006 960.9775)"><tspan x="0" y="0" fill="#231F20" font-family="'Poppins-Regular'" font-size="13.987px">FOLKLORE</tspan><tspan x="4.4" y="15.5" fill="#231F20" font-family="'Poppins-Regular'" font-size="13.987px">HEIGHTS</tspan></text>
	<text transform="matrix(0 -1 1 0 1387.3418 946.6553)" fill="#231F20" font-family="'Poppins-Regular'" font-size="13.987px">M200</text>
</g>
<g>
	<text transform="matrix(0 -1 1 0 1246.9521 725.9658)"><tspan x="0" y="0" fill="#231F20" font-family="'Poppins-Regular'" font-size="13.987px">SHORT</tspan><tspan x="9.4" y="15.5" fill="#231F20" font-family="'Poppins-Regular'" font-size="13.987px">LINE</tspan></text>
	<text transform="matrix(0 -1 1 0 1387.3418 722.1748)" fill="#231F20" font-family="'Poppins-Regular'" font-size="13.987px">M200</text>
</g>
<g>
	<text transform="matrix(0 -1 1 0 1290.1006 624.6987)" fill="#231F20" font-family="'Poppins-Regular'" font-size="13.987px">RIVERSIDE</text>
	<text transform="matrix(0 -1 1 0 1387.3418 609.9351)" fill="#231F20" font-family="'Poppins-Regular'" font-size="13.987px">M250</text>
</g>
<g>
	<text transform="matrix(0 -1 1 0 1246.9521 521.7295)"><tspan x="0" y="0" fill="#231F20" font-family="'Poppins-Regular'" font-size="13.987px">COMMUNITY</tspan><tspan x="21" y="15.5" fill="#231F20" font-family="'Poppins-Regular'" font-size="13.987px">CHEST</tspan></text>
</g>
<g>
	<text transform="matrix(0 -1 1 0 1290.1006 397.3643)"><tspan x="0" y="0" fill="#231F20" font-family="'Poppins-Regular'" font-size="13.987px">CLEMENT</tspan><tspan x="11.4" y="15.5" fill="#231F20" font-family="'Poppins-Regular'" font-size="13.987px">DRIVE</tspan></text>
	<text transform="matrix(0 -1 1 0 1387.3418 385.5527)" fill="#231F20" font-family="'Poppins-Regular'" font-size="13.987px">M300</text>
</g>
<g>
	<text transform="matrix(0 -1 1 0 1290.1006 286.9966)"><tspan x="0" y="0" fill="#231F20" font-family="'Poppins-Regular'" font-size="13.987px">ATLANTIC</tspan><tspan x="13.2" y="15.5" fill="#231F20" font-family="'Poppins-Regular'" font-size="13.987px">DRIVE</tspan></text>
	<text transform="matrix(0 -1 1 0 1387.3418 273.3105)" fill="#231F20" font-family="'Poppins-Regular'" font-size="13.987px">M300</text>
</g>
<g>
	
		<rect x="4" y="1096.5" fill="#C9DAF8" stroke="#231F20" stroke-width="1.9722" stroke-miterlimit="10" width="194.3" height="112.2"/>
	
		<rect x="4" y="984.3" fill="#C9DAF8" stroke="#231F20" stroke-width="1.9722" stroke-miterlimit="10" width="194.3" height="112.2"/>
	<rect x="4" y="872" fill="#C9DAF8" stroke="#231F20" stroke-width="1.9722" stroke-miterlimit="10" width="194.3" height="112.2"/>
	
		<rect x="4" y="759.8" fill="#C9DAF8" stroke="#231F20" stroke-width="1.9722" stroke-miterlimit="10" width="194.3" height="112.2"/>
	
		<rect x="4" y="647.5" fill="#C9DAF8" stroke="#231F20" stroke-width="1.9722" stroke-miterlimit="10" width="194.3" height="112.2"/>
	
		<rect x="4" y="535.3" fill="#C9DAF8" stroke="#231F20" stroke-width="1.9722" stroke-miterlimit="10" width="194.3" height="112.2"/>
	
		<rect x="4" y="423.1" fill="#C9DAF8" stroke="#231F20" stroke-width="1.9722" stroke-miterlimit="10" width="194.3" height="112.2"/>
	
		<rect x="4" y="310.8" fill="#C9DAF8" stroke="#231F20" stroke-width="1.9722" stroke-miterlimit="10" width="194.3" height="112.2"/>
	
		<rect x="4" y="198.6" fill="#C9DAF8" stroke="#231F20" stroke-width="1.9722" stroke-miterlimit="10" width="194.3" height="112.2"/>
	
		<rect x="143.9" y="1096.5" fill="#EE5BA0" stroke="#231F20" stroke-width="2" stroke-miterlimit="10" width="54.4" height="112.2"/>
	<rect x="143.9" y="872" fill="#EE5BA0" stroke="#231F20" stroke-width="2" stroke-miterlimit="10" width="54.4" height="112.2"/>
	<rect x="143.9" y="759.8" fill="#EE5BA0" stroke="#231F20" stroke-width="2" stroke-miterlimit="10" width="54.4" height="112.2"/>
	<rect x="143.9" y="535.3" fill="#F6921E" stroke="#231F20" stroke-width="2" stroke-miterlimit="10" width="54.4" height="112.2"/>
	<rect x="143.9" y="310.8" fill="#F6921E" stroke="#231F20" stroke-width="2" stroke-miterlimit="10" width="54.4" height="112.2"/>
	<rect x="143.9" y="198.6" fill="#F6921E" stroke="#231F20" stroke-width="2" stroke-miterlimit="10" width="54.4" height="112.2"/>
</g>
<g>
	<text transform="matrix(0 1 -1 0 116.5981 224.2036)"><tspan x="0" y="0" fill="#231F20" font-family="'Poppins-Regular'" font-size="13.987px">ATLANTA</tspan><tspan x="10.7" y="15.5" fill="#231F20" font-family="'Poppins-Regular'" font-size="13.987px">DRIVE</tspan></text>
	<text transform="matrix(0 1 -1 0 19.3569 235.4419)" fill="#231F20" font-family="'Poppins-Regular'" font-size="13.987px">M200</text>
</g>
<g>
	<text transform="matrix(0 1 -1 0 116.5981 330.7305)"><tspan x="0" y="0" fill="#231F20" font-family="'Poppins-Regular'" font-size="13.987px">NEW YORK</tspan><tspan x="16.4" y="15.5" fill="#231F20" font-family="'Poppins-Regular'" font-size="13.987px">DRIVE</tspan></text>
	<text transform="matrix(0 1 -1 0 19.3569 347.6821)" fill="#231F20" font-family="'Poppins-Regular'" font-size="13.987px">M200</text>
</g>
<g>
	<text transform="matrix(0 1 -1 0 116.5981 560.3584)"><tspan x="0" y="0" fill="#231F20" font-family="'Poppins-Regular'" font-size="13.987px">BETHANY</tspan><tspan x="11.3" y="15.5" fill="#231F20" font-family="'Poppins-Regular'" font-size="13.987px">DRIVE</tspan></text>
	<text transform="matrix(0 1 -1 0 19.3569 573.9258)" fill="#231F20" font-family="'Poppins-Regular'" font-size="13.987px">M180</text>
</g>
<g>
	<text transform="matrix(0 1 -1 0 19.3569 686.4839)" fill="#231F20" font-family="'Calibri-Bold'" font-size="13.987px">M200</text>
</g>
<g>
	<text transform="matrix(0 1 -1 0 116.5981 791.1123)"><tspan x="0" y="0" fill="#231F20" font-family="'Poppins-Regular'" font-size="13.987px">STATES</tspan><tspan x="5" y="15.5" fill="#231F20" font-family="'Poppins-Regular'" font-size="13.987px">DRIVE</tspan></text>
	<text transform="matrix(0 1 -1 0 19.3569 798.4199)" fill="#231F20" font-family="'Poppins-Regular'" font-size="13.987px">M140</text>
</g>
<g>
	<text transform="matrix(0 1 -1 0 116.5981 887.3936)"><tspan x="0" y="0" fill="#231F20" font-family="'Poppins-Regular'" font-size="13.987px">CALIFORNIA</tspan><tspan x="20.9" y="15.5" fill="#231F20" font-family="'Poppins-Regular'" font-size="13.987px">DRIVE</tspan></text>
	<text transform="matrix(0 1 -1 0 19.3569 910.6182)" fill="#231F20" font-family="'Poppins-Regular'" font-size="13.987px">M160</text>
</g>
<g>
	<text transform="matrix(0 1 -1 0 159.7471 1025.7246)"><tspan x="0" y="0" fill="#231F20" font-family="'Poppins-Regular'" font-size="13.987px">CAR</tspan><tspan x="-20.9" y="15.5" fill="#231F20" font-family="'Poppins-Regular'" font-size="13.987px">COMPANY</tspan></text>
	<text transform="matrix(0 1 -1 0 19.3569 1022.9063)" fill="#231F20" font-family="'Poppins-Regular'" font-size="13.987px">M150</text>
</g>
<g>
	<text transform="matrix(0 1 -1 0 116.5981 1130.5117)"><tspan x="0" y="0" fill="#231F20" font-family="'Poppins-Regular'" font-size="13.987px">OLIVIA</tspan><tspan x="-10.7" y="15.5" fill="#231F20" font-family="'Poppins-Regular'" font-size="13.987px">GARDENS</tspan></text>
	<text transform="matrix(0 1 -1 0 19.3569 1135.1406)" fill="#231F20" font-family="'Poppins-Regular'" font-size="13.987px">M140</text>
</g>
<rect x="1208.4" y="3.6" fill="#C9DAF8" stroke="#231F20" stroke-width="1.9722" stroke-miterlimit="10" width="194.3" height="194.3"/>
<rect x="4" y="3.6" fill="#C9DAF8" stroke="#231F20" stroke-width="1.9722" stroke-miterlimit="10" width="194.3" height="194.3"/>
<rect x="198.3" y="3.6" fill="#C9DAF8" stroke="#231F20" stroke-width="1.9722" stroke-miterlimit="10" width="112.2" height="194.3"/>
<rect x="310.5" y="3.6" fill="#C9DAF8" stroke="#231F20" stroke-width="1.9722" stroke-miterlimit="10" width="112.2" height="194.3"/>
<rect x="422.7" y="3.6" fill="#C9DAF8" stroke="#231F20" stroke-width="1.9722" stroke-miterlimit="10" width="112.2" height="194.3"/>
<rect x="535" y="3.6" fill="#C9DAF8" stroke="#231F20" stroke-width="1.9722" stroke-miterlimit="10" width="112.2" height="194.3"/>
<rect x="647.2" y="3.6" fill="#C9DAF8" stroke="#231F20" stroke-width="1.9722" stroke-miterlimit="10" width="112.2" height="194.3"/>
<rect x="759.5" y="3.6" fill="#C9DAF8" stroke="#231F20" stroke-width="1.9722" stroke-miterlimit="10" width="112.2" height="194.3"/>
<rect x="871.7" y="3.6" fill="#C9DAF8" stroke="#231F20" stroke-width="1.9722" stroke-miterlimit="10" width="112.2" height="194.3"/>
<rect x="984" y="3.6" fill="#C9DAF8" stroke="#231F20" stroke-width="1.9722" stroke-miterlimit="10" width="112.2" height="194.3"/>
<rect x="1096.2" y="3.6" fill="#C9DAF8" stroke="#231F20" stroke-width="1.9722" stroke-miterlimit="10" width="112.2" height="194.3"/>
<rect x="198.3" y="143.4" fill="#EC1C24" stroke="#231F20" stroke-width="2" stroke-miterlimit="10" width="112.2" height="54.4"/>
<rect x="422.7" y="143.4" fill="#EC1C24" stroke="#231F20" stroke-width="2" stroke-miterlimit="10" width="112.2" height="54.4"/>
<rect x="535" y="143.4" fill="#EC1C24" stroke="#231F20" stroke-width="2" stroke-miterlimit="10" width="112.2" height="54.4"/>
<rect x="759.5" y="143.4" fill="#FFCA05" stroke="#231F20" stroke-width="2" stroke-miterlimit="10" width="112.2" height="54.4"/>
<rect x="871.7" y="143.4" fill="#FFCA05" stroke="#231F20" stroke-width="2" stroke-miterlimit="10" width="112.2" height="54.4"/>
<rect x="1096.2" y="143.4" fill="#FFCA05" stroke="#231F20" stroke-width="2" stroke-miterlimit="10" width="112.2" height="54.4"/>
<g>
	<text transform="matrix(-1 0 0 -1 1183.7725 116.1699)" fill="#231F20" font-family="'Poppins-Regular'" font-size="13.987px">OAKVILLE</text>
	<text transform="matrix(-1 0 0 -1 1171.2891 18.9287)" fill="#231F20" font-family="'Poppins-Regular'" font-size="13.987px">M230</text>
</g>
<g>
	<text transform="matrix(-1 0 0 -1 1057.2402 18.9287)" fill="#231F20" font-family="'Calibri-Bold'" font-size="13.987px">M130</text>
</g>
<g>
	<text transform="matrix(-1 0 0 -1 963.6074 116.1699)"><tspan x="0" y="0" fill="#231F20" font-family="'Poppins-Regular'" font-size="13.987px">NASHVILLE</tspan><tspan x="16" y="15.5" fill="#231F20" font-family="'Poppins-Regular'" font-size="13.987px">DRIVE</tspan></text>
	<text transform="matrix(-1 0 0 -1 947.1309 18.9287)" fill="#231F20" font-family="'Poppins-Regular'" font-size="13.987px">M260</text>
</g>
<g>
	<text transform="matrix(-1 0 0 -1 839.9307 116.1699)"><tspan x="0" y="0" fill="#231F20" font-family="'Poppins-Regular'" font-size="13.987px">RODEO</tspan><tspan x="4.5" y="15.5" fill="#231F20" font-family="'Poppins-Regular'" font-size="13.987px">DRIVE</tspan></text>
	<text transform="matrix(-1 0 0 -1 833.2168 18.9287)" fill="#231F20" font-family="'Poppins-Regular'" font-size="13.987px">$260</text>
</g>
<g>
	<text transform="matrix(-1 0 0 -1 727.0771 159.3208)"><tspan x="0" y="0" fill="#231F20" font-family="'Poppins-Regular'" font-size="13.987px">WATER</tspan><tspan x="-1.7" y="15.5" fill="#231F20" font-family="'Poppins-Regular'" font-size="13.987px">WORKS</tspan></text>
	<text transform="matrix(-1 0 0 -1 718.4893 18.9287)" fill="#231F20" font-family="'Poppins-Regular'" font-size="13.987px">M60</text>
</g>
<g>
	<text transform="matrix(-1 0 0 -1 618.4785 116.1699)"><tspan x="0" y="0" fill="#231F20" font-family="'Poppins-Regular'" font-size="13.987px">PACIFIC</tspan><tspan x="7.6" y="15.5" fill="#231F20" font-family="'Poppins-Regular'" font-size="13.987px">DRIVE</tspan></text>
	<text transform="matrix(-1 0 0 -1 610.4082 18.9287)" fill="#231F20" font-family="'Poppins-Regular'" font-size="13.987px">M260</text>
</g>
<g>
	<text transform="matrix(-1 0 0 -1 510.0303 116.1699)"><tspan x="0" y="0" fill="#231F20" font-family="'Poppins-Regular'" font-size="13.987px">CLEMENT</tspan><tspan x="11.4" y="15.5" fill="#231F20" font-family="'Poppins-Regular'" font-size="13.987px">DRIVE</tspan></text>
	<text transform="matrix(-1 0 0 -1 498.1211 18.9287)" fill="#231F20" font-family="'Poppins-Regular'" font-size="13.987px">M200</text>
</g>
<g>
	<text transform="matrix(-1 0 0 -1 284.2061 116.1699)"><tspan x="0" y="0" fill="#231F20" font-family="'Poppins-Regular'" font-size="13.987px">ALMOND</tspan><tspan x="10" y="15.5" fill="#231F20" font-family="'Poppins-Regular'" font-size="13.987px">DRIVE</tspan></text>
	<text transform="matrix(-1 0 0 -1 273.6392 18.9287)" fill="#231F20" font-family="'Poppins-Regular'" font-size="13.987px">M200</text>
</g>
<text transform="matrix(1 0 0 1 996.7861 1246.5244)"><tspan x="0" y="0" fill="#231F20" font-family="'Poppins-Regular'" font-size="13.987px">COMMUNITY</tspan><tspan x="21" y="15.5" fill="#231F20" font-family="'Poppins-Regular'" font-size="13.987px">CHEST</tspan></text>
<g>
	<text transform="matrix(0 1 -1 0 159.7471 435.8853)"><tspan x="0" y="0" fill="#231F20" font-family="'Poppins-Regular'" font-size="13.987px">COMMUNITY</tspan><tspan x="21" y="15.5" fill="#231F20" font-family="'Poppins-Regular'" font-size="13.987px">CHEST</tspan></text>
</g>
<text transform="matrix(0 1 -1 0 159.7471 660.1304)"><tspan x="0" y="0" fill="#231F20" font-family="'Poppins-Regular'" font-size="13.987px">MANHATTAN</tspan><tspan x="9.4" y="15.5" fill="#231F20" font-family="'Poppins-Regular'" font-size="13.987px">RAILROAD</tspan></text>
<g>
	<text transform="matrix(-1 0 0 -1 1074.1709 159.3208)" fill="#231F20" font-family="'Poppins-Regular'" font-size="13.987px">RAILROAD</text>
</g>
<g>
	<g>
		
			<text transform="matrix(-1 0 0 -1 403.0034 49.0498)" fill="#90278E" font-family="'Poppins-Bold'" font-size="135.2074px" letter-spacing="2">?</text>
		<text transform="matrix(-1 0 0 -1 396.187 159.3208)" fill="#231F20" font-family="'Poppins-Regular'" font-size="13.987px">CHANCE</text>
	</g>
</g>
<g>
	<g>
		
			<text transform="matrix(0 -1 1 0 1357.2217 848.7959)" fill="#231F20" stroke="#D5EDEA" stroke-width="1.9722" stroke-miterlimit="10" font-family="'Poppins-Bold'" font-size="125px" letter-spacing="2">?</text>
		<text transform="matrix(0 -1 1 0 1246.9521 844.7246)" fill="#231F20" font-family="'Poppins-Regular'" font-size="13.987px">CHANCE</text>
		<text transform="matrix(0 -1 1 0 1246.9521 1066.2139)"><tspan x="0" y="0" fill="#231F20" font-family="'Poppins-Regular'" font-size="13.987px">LUXURY</tspan><tspan x="12.7" y="15.5" fill="#231F20" font-family="'Poppins-Regular'" font-size="13.987px">TAX</tspan></text>
	</g>
</g>
<path fill="#231F20" d="M755,1332.8l-6.6-7.8h-6.2v-4.1h1v-4.4h1.1v-4.2h-1.1v-5.2h-1v-2H737l0.7-11.7h2.3v-3.6h-11.2v3.6h2.3
	l0.7,11.7h-8.4v-4.2c0-2.3-1.9-3.4-4.2-3.4c-2.3,0-4.2,1.1-4.2,3.4v4.2h-8.6v-7.9c0-3.1-2.5-4.8-5.6-4.8c-3.1,0-5.6,1.7-5.6,4.8v7.9
	h-11.8v-10.1h-31.6v2.7h11.8v24.6h-2.7v-1.3H658v6.2h2.9v-1.8h2.7v3h6.4c1,3.1,3.9,5.3,7.3,5.3c3.4,0,6.3-2.2,7.3-5.3h2.8
	c1,3.1,3.9,5.3,7.3,5.3c3.4,0,6.3-2.2,7.3-5.3h2.8c1,3.1,3.9,5.3,7.3,5.3c3.4,0,6.3-2.2,7.3-5.3h4.1c-0.1,0.4-0.2,0.8-0.2,1.2
	c0,2.3,1.8,4.1,4.1,4.1s4.1-1.8,4.1-4.1c0-0.4-0.1-0.8-0.2-1.2h1.2c-0.1,0.4-0.2,0.8-0.2,1.2c0,2.3,1.8,4.1,4.1,4.1
	c2.3,0,4.1-1.8,4.1-4.1c0-0.4-0.1-0.8-0.2-1.2h4v4.5H755z M665.8,1306.8v-7.6h11.1v7.6H665.8z M708.4,1323.8h-33.8
	c-0.7,0-1.2-0.5-1.2-1.2s0.5-1.2,1.2-1.2h33.8c0.7,0,1.2,0.5,1.2,1.2S709.1,1323.8,708.4,1323.8z"/>
<path fill="#231F20" d="M64.4,755.3l7.8-6.6v-6.2h4.1v1h4.4v1.1H85v-1.1h5.2v-1h2v-5.1l11.7,0.7v2.3h3.6v-11.2h-3.6v2.3l-11.7,0.7
	v-8.4h4.2c2.3,0,3.4-1.9,3.4-4.2c0-2.3-1.1-4.2-3.4-4.2h-4.2v-8.6h7.9c3.1,0,4.8-2.5,4.8-5.6c0-3.1-1.7-5.6-4.8-5.6h-7.9v-11.8h10.1
	V652h-2.7v11.8H75.1v-2.7h1.3v-2.9h-6.2v2.9h1.8v2.7h-3v6.4c-3.1,1-5.3,3.9-5.3,7.3c0,3.4,2.2,6.3,5.3,7.3v2.8
	c-3.1,1-5.3,3.9-5.3,7.3c0,3.4,2.2,6.3,5.3,7.3v2.8c-3.1,1-5.3,3.9-5.3,7.3c0,3.4,2.2,6.3,5.3,7.3v4.1c-0.4-0.1-0.8-0.2-1.2-0.2
	c-2.3,0-4.1,1.8-4.1,4.1s1.8,4.1,4.1,4.1c0.4,0,0.8-0.1,1.2-0.2v1.2c-0.4-0.1-0.8-0.2-1.2-0.2c-2.3,0-4.1,1.8-4.1,4.1
	c0,2.3,1.8,4.1,4.1,4.1c0.4,0,0.8-0.1,1.2-0.2v4h-4.5V755.3z M90.4,666.1H98v11.1h-7.6V666.1z M73.5,708.7v-33.8
	c0-0.7,0.5-1.2,1.2-1.2c0.7,0,1.2,0.5,1.2,1.2v33.8c0,0.7-0.5,1.2-1.2,1.2C74,709.9,73.5,709.4,73.5,708.7z"/>
<path fill="#231F20" d="M651.7,73l6.6,7.8h6.2V85h-1v4.4h-1.1v4.2h1.1v5.2h1v2h5.1l-0.7,11.7h-2.3v3.6h11.2v-3.6h-2.3l-0.7-11.7h8.4
	v4.2c0,2.3,1.9,3.4,4.2,3.4c2.3,0,4.2-1.1,4.2-3.4v-4.2h8.6v7.9c0,3.1,2.5,4.8,5.6,4.8c3.1,0,5.6-1.7,5.6-4.8v-7.9h11.8V111H755
	v-2.7h-11.8V83.7h2.7V85h2.9v-6.2h-2.9v1.8h-2.7v-3h-6.4c-1-3.1-3.9-5.3-7.3-5.3c-3.4,0-6.3,2.2-7.3,5.3h-2.8
	c-1-3.1-3.9-5.3-7.3-5.3c-3.4,0-6.3,2.2-7.3,5.3H702c-1-3.1-3.9-5.3-7.3-5.3c-3.4,0-6.3,2.2-7.3,5.3h-4.1c0.1-0.4,0.2-0.8,0.2-1.2
	c0-2.3-1.8-4.1-4.1-4.1s-4.1,1.8-4.1,4.1c0,0.4,0.1,0.8,0.2,1.2h-1.2c0.1-0.4,0.2-0.8,0.2-1.2c0-2.3-1.8-4.1-4.1-4.1
	c-2.3,0-4.1,1.8-4.1,4.1c0,0.4,0.1,0.8,0.2,1.2h-4V73H651.7z M740.9,99v7.6h-11.1V99H740.9z M698.3,82.1h33.8c0.7,0,1.2,0.5,1.2,1.2
	c0,0.7-0.5,1.2-1.2,1.2h-33.8c-0.7,0-1.2-0.5-1.2-1.2C697.1,82.6,697.6,82.1,698.3,82.1z"/>
<path fill="#231F20" d="M1334.4,652l-7.8,6.6v6.2h-4.1v-1h-4.4v-1.1h-4.2v1.1h-5.2v1h-2v5.1l-11.7-0.7V667h-3.6v11.2h3.6v-2.3
	l11.7-0.7v8.4h-4.2c-2.3,0-3.4,1.9-3.4,4.2c0,2.3,1.1,4.2,3.4,4.2h4.2v8.6h-7.9c-3.1,0-4.8,2.5-4.8,5.6c0,3.1,1.7,5.6,4.8,5.6h7.9
	v11.8h-10.1v31.6h2.7v-11.8h24.6v2.7h-1.3v2.9h6.2v-2.9h-1.8v-2.7h3v-6.4c3.1-1,5.3-3.9,5.3-7.3c0-3.4-2.2-6.3-5.3-7.3v-2.8
	c3.1-1,5.3-3.9,5.3-7.3c0-3.4-2.2-6.3-5.3-7.3v-2.8c3.1-1,5.3-3.9,5.3-7.3c0-3.4-2.2-6.3-5.3-7.3v-4.1c0.4,0.1,0.8,0.2,1.2,0.2
	c2.3,0,4.1-1.8,4.1-4.1s-1.8-4.1-4.1-4.1c-0.4,0-0.8,0.1-1.2,0.2v-1.2c0.4,0.1,0.8,0.2,1.2,0.2c2.3,0,4.1-1.8,4.1-4.1
	c0-2.3-1.8-4.1-4.1-4.1c-0.4,0-0.8,0.1-1.2,0.2v-4h4.5V652z M1308.4,741.2h-7.6v-11.1h7.6V741.2z M1325.4,698.6v33.8
	c0,0.7-0.5,1.2-1.2,1.2s-1.2-0.5-1.2-1.2v-33.8c0-0.7,0.5-1.2,1.2-1.2S1325.4,697.9,1325.4,698.6z"/>
<g>
	<rect x="48.5" y="435.2" fill="#D1AF4F" width="46.1" height="86.5"/>
	<rect x="94.5" y="435.2" fill="#E7C057" width="28.2" height="86.5"/>
	<rect x="99.7" y="440.3" fill="#A9895B" width="8.9" height="76.2"/>
	<rect x="108.6" y="440.3" fill="#B99664" width="8.9" height="76.2"/>
	<path fill="#AB9040" d="M53.7,514.3c1.2,0,2.2,1,2.2,2.2c0,1.2-1,2.2-2.2,2.2s-2.2-1-2.2-2.2C51.5,515.2,52.5,514.3,53.7,514.3z"/>
	<path fill="#AB9040" d="M89.3,514.3c1.2,0,2.2,1,2.2,2.2c0,1.2-1,2.2-2.2,2.2s-2.2-1-2.2-2.2C87.1,515.2,88.1,514.3,89.3,514.3z"/>
	<path fill="#AB9040" d="M53.7,438.2c1.2,0,2.2,1,2.2,2.2c0,1.2-1,2.2-2.2,2.2s-2.2-1-2.2-2.2C51.5,439.2,52.5,438.2,53.7,438.2z"/>
	<g>
		<defs>
			<path id="SVGID_1_" d="M84,516.4c0-2.9,2.4-5.3,5.3-5.3c0,0,0.1,0,0.1,0v-65.5c0,0-0.1,0-0.1,0c-2.9,0-5.3-2.4-5.3-5.3
				c0,0,0-0.1,0-0.1H59c0,0,0,0.1,0,0.1c0,2.9-2.4,5.3-5.3,5.3c0,0-0.1,0-0.1,0v65.5c0,0,0.1,0,0.1,0c2.9,0,5.3,2.4,5.3,5.3
				c0,0,0,0.1,0,0.1H84C84,516.5,84,516.5,84,516.4z"/>
		</defs>
		<clipPath id="SVGID_2_">
			<use xlink:href="#SVGID_1_"  overflow="visible"/>
		</clipPath>
		<g clip-path="url(#SVGID_2_)">
			<rect x="53.6" y="440.3" fill="#A9895B" width="8.9" height="76.2"/>
			<rect x="62.5" y="440.3" fill="#B99664" width="8.9" height="76.2"/>
			<rect x="71.5" y="440.3" fill="#A9895B" width="8.9" height="76.2"/>
			<rect x="80.4" y="440.3" fill="#B99664" width="8.9" height="76.2"/>
		</g>
	</g>
	<path fill="#AB9040" d="M89.3,438.2c1.2,0,2.2,1,2.2,2.2c0,1.2-1,2.2-2.2,2.2s-2.2-1-2.2-2.2C87.1,439.2,88.1,438.2,89.3,438.2z"/>
	<polygon fill="#E7C057" points="70.7,485.1 70.7,471.8 84.2,470.3 84.2,486.5 	"/>
	<path fill="#69502E" d="M73.1,481l4-1.5c0.4,0.8,1.2,1.3,2.2,1.3c1.4,0,2.5-1.1,2.5-2.5s-1.1-2.5-2.5-2.5c-0.9,0-1.8,0.5-2.2,1.3
		l-4-1.5V481z"/>
</g>
<g>
	<rect x="996.8" y="1317.1" fill="#D1AF4F" width="86.5" height="46.1"/>
	<rect x="996.8" y="1289" fill="#E7C057" width="86.5" height="28.2"/>
	<rect x="1002" y="1303" fill="#A9895B" width="76.2" height="8.9"/>
	<rect x="1002" y="1294.1" fill="#B99664" width="76.2" height="8.9"/>
	<path fill="#AB9040" d="M1075.9,1357.9c0-1.2,1-2.2,2.2-2.2c1.2,0,2.2,1,2.2,2.2c0,1.2-1,2.2-2.2,2.2
		C1076.9,1360.1,1075.9,1359.1,1075.9,1357.9z"/>
	<path fill="#AB9040" d="M1075.9,1322.4c0-1.2,1-2.2,2.2-2.2c1.2,0,2.2,1,2.2,2.2c0,1.2-1,2.2-2.2,2.2
		C1076.9,1324.6,1075.9,1323.6,1075.9,1322.4z"/>
	<path fill="#AB9040" d="M999.9,1357.9c0-1.2,1-2.2,2.2-2.2c1.2,0,2.2,1,2.2,2.2c0,1.2-1,2.2-2.2,2.2
		C1000.9,1360.1,999.9,1359.1,999.9,1357.9z"/>
	<g>
		<defs>
			<path id="SVGID_3_" d="M1078.1,1327.6c-2.9,0-5.3-2.4-5.3-5.3c0,0,0-0.1,0-0.1h-65.5c0,0,0,0.1,0,0.1c0,2.9-2.4,5.3-5.3,5.3
				c0,0-0.1,0-0.1,0v25.1c0,0,0.1,0,0.1,0c2.9,0,5.3,2.4,5.3,5.3c0,0,0,0.1,0,0.1h65.5c0,0,0-0.1,0-0.1c0-2.9,2.4-5.3,5.3-5.3
				c0,0,0.1,0,0.1,0v-25.1C1078.2,1327.6,1078.1,1327.6,1078.1,1327.6z"/>
		</defs>
		<clipPath id="SVGID_4_">
			<use xlink:href="#SVGID_3_"  overflow="visible"/>
		</clipPath>
		<g clip-path="url(#SVGID_4_)">
			<rect x="1002" y="1349.1" fill="#A9895B" width="76.2" height="8.9"/>
			<rect x="1002" y="1340.2" fill="#B99664" width="76.2" height="8.9"/>
			<rect x="1002" y="1331.2" fill="#A9895B" width="76.2" height="8.9"/>
			<rect x="1002" y="1322.3" fill="#B99664" width="76.2" height="8.9"/>
		</g>
	</g>
	<path fill="#AB9040" d="M999.9,1322.4c0-1.2,1-2.2,2.2-2.2c1.2,0,2.2,1,2.2,2.2c0,1.2-1,2.2-2.2,2.2
		C1000.9,1324.6,999.9,1323.6,999.9,1322.4z"/>
	<polygon fill="#E7C057" points="1046.7,1340.9 1033.4,1340.9 1032,1327.4 1048.2,1327.4 	"/>
	<path fill="#69502E" d="M1042.6,1338.5l-1.5-4c0.8-0.4,1.3-1.2,1.3-2.2c0-1.4-1.1-2.5-2.5-2.5c-1.4,0-2.5,1.1-2.5,2.5
		c0,0.9,0.5,1.8,1.3,2.2l-1.5,4H1042.6z"/>
</g>
<g>
	<rect x="1320.4" y="432.4" fill="#D1AF4F" width="46.1" height="86.5"/>
	<rect x="1292.2" y="432.4" fill="#E7C057" width="28.2" height="86.5"/>
	<rect x="1306.3" y="437.6" fill="#A9895B" width="8.9" height="76.2"/>
	<rect x="1297.4" y="437.6" fill="#B99664" width="8.9" height="76.2"/>
	<path fill="#AB9040" d="M1361.2,439.9c-1.2,0-2.2-1-2.2-2.2c0-1.2,1-2.2,2.2-2.2c1.2,0,2.2,1,2.2,2.2
		C1363.4,438.9,1362.4,439.9,1361.2,439.9z"/>
	<path fill="#AB9040" d="M1325.7,439.9c-1.2,0-2.2-1-2.2-2.2c0-1.2,1-2.2,2.2-2.2c1.2,0,2.2,1,2.2,2.2
		C1327.9,438.9,1326.9,439.9,1325.7,439.9z"/>
	<path fill="#AB9040" d="M1361.2,515.9c-1.2,0-2.2-1-2.2-2.2c0-1.2,1-2.2,2.2-2.2c1.2,0,2.2,1,2.2,2.2
		C1363.4,514.9,1362.4,515.9,1361.2,515.9z"/>
	<g>
		<defs>
			<path id="SVGID_5_" d="M1330.9,437.7c0,2.9-2.4,5.3-5.3,5.3c0,0-0.1,0-0.1,0v65.5c0,0,0.1,0,0.1,0c2.9,0,5.3,2.4,5.3,5.3
				c0,0,0,0.1,0,0.1h25.1c0,0,0-0.1,0-0.1c0-2.9,2.4-5.3,5.3-5.3c0,0,0.1,0,0.1,0v-65.5c0,0-0.1,0-0.1,0c-2.9,0-5.3-2.4-5.3-5.3
				c0,0,0-0.1,0-0.1h-25.1C1330.9,437.6,1330.9,437.6,1330.9,437.7z"/>
		</defs>
		<clipPath id="SVGID_6_">
			<use xlink:href="#SVGID_5_"  overflow="visible"/>
		</clipPath>
		<g clip-path="url(#SVGID_6_)">
			<rect x="1352.4" y="437.6" fill="#A9895B" width="8.9" height="76.2"/>
			<rect x="1343.4" y="437.6" fill="#B99664" width="8.9" height="76.2"/>
			<rect x="1334.5" y="437.6" fill="#A9895B" width="8.9" height="76.2"/>
			<rect x="1325.5" y="437.6" fill="#B99664" width="8.9" height="76.2"/>
		</g>
	</g>
	<path fill="#AB9040" d="M1325.7,515.9c-1.2,0-2.2-1-2.2-2.2c0-1.2,1-2.2,2.2-2.2c1.2,0,2.2,1,2.2,2.2
		C1327.9,514.9,1326.9,515.9,1325.7,515.9z"/>
	<polygon fill="#E7C057" points="1344.2,469 1344.2,482.3 1330.7,483.8 1330.7,467.6 	"/>
	<path fill="#69502E" d="M1341.8,473.1l-4,1.5c-0.4-0.8-1.2-1.3-2.2-1.3c-1.4,0-2.5,1.1-2.5,2.5c0,1.4,1.1,2.5,2.5,2.5
		c0.9,0,1.8-0.5,2.2-1.3l4,1.5V473.1z"/>
</g>
<g>
	<g>
		<g>
			<g>
				<path fill="#FFD300" d="M1334.5,1005.9c-18.6,0-33.7,15.1-33.7,33.7c0,18.6,15.1,33.7,33.7,33.7c18.6,0,33.7-15.1,33.7-33.7
					C1368.2,1021,1353.2,1005.9,1334.5,1005.9z M1334.5,1069.6c-16.6,0-30-13.4-30-30c0-16.6,13.4-30,30-30c16.6,0,30,13.4,30,30
					C1364.5,1056.2,1351.1,1069.6,1334.5,1069.6z"/>
			</g>
		</g>
		<g>
			<polygon fill="#B8E4FA" points="1280.6,1054.5 1272.1,1049.5 1280.6,1044.6 			"/>
			<polygon fill="#C6E9FA" points="1280.6,1044.6 1272.1,1039.7 1280.6,1034.7 			"/>
			<polygon fill="#B8E4FA" points="1280.6,1034.7 1272.1,1029.8 1280.6,1024.8 			"/>
			<polygon fill="#9CDBF8" points="1272.1,1029.8 1280.6,1034.7 1272.1,1039.7 			"/>
			<polygon fill="#9CDBF8" points="1272.1,1039.7 1280.6,1044.6 1272.1,1049.5 			"/>
			<polygon fill="#9CDBF8" points="1280.6,1054.5 1300.1,1039.7 1280.6,1044.6 			"/>
			<polygon fill="#B8E4FA" points="1280.6,1044.6 1300.1,1039.7 1280.6,1034.7 			"/>
			<polygon fill="#9CDBF8" points="1280.6,1034.7 1300.1,1039.6 1280.6,1024.8 			"/>
		</g>
	</g>
	<polygon fill="#FFFFFF" points="1279,1023.7 1277.9,1010.1 1282.1,1023 1295.7,1022 1282.7,1026.2 1283.8,1039.7 1279.6,1026.8 
		1266,1027.9 	"/>
</g>
<text transform="matrix(-0.7071 0.7071 -0.7071 -0.7071 168.375 137.7173)"><tspan x="0" y="0" fill="#231F20" font-family="'Poppins-Regular'" font-size="20px">FREE</tspan><tspan x="-21.1" y="24.9" fill="#231F20" font-family="'Poppins-Regular'" font-size="20px">PARKING</tspan></text>
<text transform="matrix(-0.7071 -0.7071 0.7071 -0.7071 1277.1069 176.088)"><tspan x="0" y="0" fill="#231F20" font-family="'Poppins-Regular'" font-size="20px">GO TO</tspan><tspan x="13" y="24.9" fill="#231F20" font-family="'Poppins-Regular'" font-size="20px">JAIL</tspan></text>
<text transform="matrix(0.7071 -0.7071 0.7071 0.7071 1223.3895 1285.038)"><tspan x="0" y="0" fill="#231F20" font-family="'Poppins-Regular'" font-size="20px">COLLECT</tspan><tspan x="18.5" y="24.9" fill="#231F20" font-family="'Poppins-Regular'" font-size="20px">$200</tspan><tspan x="-8.8" y="49.7" fill="#231F20" font-family="'Poppins-Regular'" font-size="20px">SALARY AS</tspan><tspan x="-5.1" y="74.6" fill="#231F20" font-family="'Poppins-Regular'" font-size="20px">YOU PASS</tspan></text>
<text transform="matrix(0.7071 0.7071 -0.7071 0.7071 155.7949 1235.3527)"><tspan x="0" y="0" fill="#231F20" font-family="'Poppins-Regular'" font-size="23.3117px">IN</tspan><tspan x="-11.3" y="24.9" fill="#231F20" font-family="'Poppins-Regular'" font-size="23.3117px">JAIL</tspan></text>
<text transform="matrix(0.7071 0.7071 -0.7071 0.7071 45.7332 1327.5448)"><tspan x="0" y="0" fill="#231F20" font-family="'Poppins-Regular'" font-size="20px">JUST</tspan><tspan x="-17.7" y="24.9" fill="#231F20" font-family="'Poppins-Regular'" font-size="20px">VISITING</tspan></text>
<polygon fill="#EC1C24" points="1341.5,1389.5 1353.9,1377.2 1336,1359.2 1385.3,1359.2 1385.3,1335.5 1336,1335.5 1353.9,1317.5 
	1341.5,1305.1 1299.3,1347.3 "/>
<path fill="#231F20" d="M56.3,133.6c0.6-1.3,1.7-2.6,2.9-3.6c2.4-2,4.2-2.1,5.7-0.4c1,1.2,0.5,3-1.8,4.9c-0.1,0.1-0.2,0.2-0.3,0.3
	c7.5-1.1,18.2-7.4,21.7-9.6c4.8-3,12.5-2.6,24.2-9.5c11.7-6.9,26.2-25.3,27.1-29.7c0.9-4.3,4.1-14.1,7.1-17.1c3-3-0.9-8.7-5.6-13.4
	c-5.6-5.6-12.1-3.7-16.6-1c1.2,0.6,2.3,1.4,3.3,2.3c4.9,4.9,4.9,12.7,0,17.6c-4.9,4.9-12.7,4.9-17.6,0c-1.2-1.2-2.1-2.6-2.7-4
	l-30.8,30.8c1.5,0.6,2.8,1.5,4,2.7c4.9,4.9,4.9,12.7,0,17.6c-4.9,4.8-12.7,4.9-17.6,0c-1.2-1.2-2.1-2.6-2.7-4l-3.5,3.5
	C50.1,124,50.8,128.1,56.3,133.6C56.2,133.6,56.3,133.6,56.3,133.6z M75,119.9c3.9-3.9,3.9-10.2,0-14.1c-3.9-3.9-10.2-3.9-14.1,0
	c-3.9,3.9-3.9,10.2,0,14.1C64.8,123.8,71.1,123.8,75,119.9z M62.6,107.5c3-3,7.8-3,10.7,0c3,3,3,7.8,0,10.7c-3,3-7.8,3-10.7,0
	C59.7,115.3,59.7,110.5,62.6,107.5z M122.1,72.8c3.9-3.9,3.9-10.2,0-14.1c-3.9-3.9-10.2-3.9-14.1,0c-3.9,3.9-3.9,10.2,0,14.1
	C111.9,76.7,118.2,76.7,122.1,72.8z M109.7,60.4c3-3,7.8-3,10.7,0c3,3,3,7.8,0,10.7c-3,3-7.8,3-10.7,0
	C106.8,68.2,106.8,63.4,109.7,60.4z"/>
<g>
	<g>
		
			<rect x="1245" y="67.3" transform="matrix(0.7073 -0.707 0.707 0.7073 326.1325 927.0406)" fill="#231F20" width="74.8" height="4.8"/>
		
			<rect x="1255.8" y="78.2" transform="matrix(0.7071 -0.7071 0.7071 0.7071 321.8275 938.0622)" fill="#231F20" width="74.8" height="4.8"/>
		
			<rect x="1266.7" y="89" transform="matrix(0.7072 -0.707 0.707 0.7072 317.2467 948.7716)" fill="#231F20" width="74.8" height="4.8"/>
		
			<rect x="1277.5" y="99.8" transform="matrix(0.707 -0.7072 0.7072 0.707 312.9602 959.8229)" fill="#231F20" width="74.8" height="4.8"/>
		
			<rect x="1288.3" y="110.6" transform="matrix(0.7071 -0.7071 0.7071 0.7071 308.3791 970.5296)" fill="#231F20" width="74.8" height="4.8"/>
		
			<rect x="1299.1" y="121.5" transform="matrix(0.7071 -0.7071 0.7071 0.7071 303.896 981.3527)" fill="#231F20" width="74.8" height="4.8"/>
	</g>
	<g>
		
			<rect x="1324.4" y="33.7" transform="matrix(0.7071 -0.7071 0.7071 0.7071 332.4183 961.467)" fill="#231F20" width="4.8" height="91.5"/>
		
			<rect x="1289.8" y="68.4" transform="matrix(0.7072 -0.707 0.707 0.7072 297.6913 947.0084)" fill="#231F20" width="4.8" height="91.5"/>
	</g>
</g>
<g>
	<g>
		
			<rect x="44.1" y="1268.3" transform="matrix(0.7073 -0.7069 0.7069 0.7073 -874.4315 429.5747)" fill="#231F20" width="74.8" height="4.8"/>
		
			<rect x="54.9" y="1279.1" transform="matrix(0.7071 -0.7071 0.7071 0.7071 -879.1085 440.6182)" fill="#231F20" width="74.8" height="4.8"/>
		
			<rect x="65.7" y="1289.9" transform="matrix(0.7072 -0.707 0.707 0.7072 -883.4941 451.3267)" fill="#231F20" width="74.8" height="4.8"/>
		
			<rect x="76.6" y="1300.8" transform="matrix(0.707 -0.7072 0.7072 0.707 -888.1718 462.379)" fill="#231F20" width="74.8" height="4.8"/>
		
			<rect x="87.4" y="1311.6" transform="matrix(0.7071 -0.7071 0.7071 0.7071 -892.5569 473.0856)" fill="#231F20" width="74.8" height="4.8"/>
		
			<rect x="98.2" y="1322.4" transform="matrix(0.7071 -0.7071 0.7071 0.7071 -897.0399 483.9088)" fill="#231F20" width="74.8" height="4.8"/>
	</g>
	<g>
		
			<rect x="123.5" y="1234.7" transform="matrix(0.7071 -0.7071 0.7071 0.7071 -868.5166 464.0243)" fill="#231F20" width="4.8" height="91.5"/>
		
			<rect x="88.9" y="1269.3" transform="matrix(0.7072 -0.707 0.707 0.7072 -903.0686 449.5873)" fill="#231F20" width="4.8" height="91.5"/>
	</g>
</g>
<g>
	
		<rect x="898.3" y="943.9" transform="matrix(0.7071 -0.7071 0.7071 0.7071 -421.411 1013.5135)" fill="#F6921E" stroke="#231F20" stroke-width="2" stroke-miterlimit="10" width="228.8" height="143.1"/>
	<g>
		<g>
			<g>
				<path fill="#FFFFFF" d="M1016.1,983.7c2.6,2.6,4.5,5.2,5.8,8c1.3,2.8,2.1,5.6,2.2,8.4c0.2,2.8-0.2,5.6-1.2,8.4
					c-0.9,2.8-2.4,5.4-4.4,7.9l8.7,9.5c0.5,0.6,0.5,1.5-0.1,2.6c-0.6,1.1-1.7,2.5-3.3,4.1c-1,1-1.9,1.9-2.7,2.5
					c-0.7,0.7-1.4,1.1-1.9,1.4c-0.5,0.3-1,0.4-1.4,0.4c-0.4,0-0.8-0.2-1.2-0.5l-11.4-10.6c-1-1-1.8-1.8-2.3-2.6
					c-0.5-0.7-0.8-1.5-0.8-2.2c0-0.7,0.1-1.4,0.5-2c0.4-0.6,0.9-1.3,1.6-2l0.7-0.7c1.6-1.6,2.8-3.3,3.5-5.1c0.7-1.7,1-3.4,0.9-5.1
					c-0.1-1.6-0.6-3.2-1.4-4.8c-0.8-1.5-1.9-3-3.2-4.3c-1.5-1.5-3.1-2.7-4.7-3.5c-1.7-0.8-3.4-1.3-5.1-1.3c-1.8,0-3.5,0.3-5.3,1.1
					c-1.8,0.8-3.5,2.1-5.3,3.8c-1.6,1.6-2.8,3.1-3.7,4.7c-0.9,1.5-1.6,2.9-2.1,4.2c-0.5,1.2-0.9,2.3-1.1,3.2
					c-0.3,0.9-0.6,1.5-0.9,1.8c-0.2,0.2-0.5,0.4-0.8,0.4c-0.3,0-0.7-0.1-1.2-0.3c-0.5-0.2-1.1-0.7-1.9-1.3c-0.8-0.6-1.7-1.4-2.7-2.5
					c-1.1-1.1-1.8-1.9-2.2-2.5c-0.4-0.6-0.6-1.2-0.6-1.8c0-0.6,0.2-1.6,0.7-2.9c0.5-1.3,1.1-2.7,2-4.3c0.9-1.6,1.9-3.2,3.2-5
					c1.2-1.7,2.7-3.4,4.3-5c3.7-3.7,7.3-6.3,10.9-7.9c3.6-1.6,7.1-2.4,10.5-2.3c3.4,0,6.6,0.8,9.5,2.2
					C1010.9,979.3,1013.6,981.3,1016.1,983.7z M1042.3,1037.6c1.3,1.3,2.2,2.5,2.9,3.5c0.7,1.1,1,2.1,1,3.2c0,1-0.3,2.1-0.9,3.2
					c-0.6,1.1-1.6,2.3-2.8,3.5c-1.3,1.3-2.5,2.3-3.6,2.9c-1.1,0.6-2.1,0.9-3.2,0.9c-1,0-2.1-0.4-3.2-1s-2.2-1.6-3.5-2.9
					c-1.3-1.3-2.3-2.5-3-3.6c-0.7-1.1-1-2.2-1.1-3.2c0-1.1,0.3-2.1,0.9-3.2c0.6-1.1,1.6-2.3,2.9-3.6c1.2-1.2,2.4-2.2,3.5-2.8
					c1.1-0.6,2.2-0.9,3.2-0.9c1.1,0,2.1,0.4,3.2,1.1C1039.7,1035.3,1040.9,1036.3,1042.3,1037.6z"/>
			</g>
		</g>
	</g>
</g>
<g>
	
		<rect x="279.6" y="326.2" transform="matrix(0.7071 -0.7071 0.7071 0.7071 -165.8565 395.1016)" fill="#6DCEF5" stroke="#231F20" stroke-width="2" stroke-miterlimit="10" width="228.8" height="143.1"/>
	<g>
		
			<rect x="340.8" y="364.8" transform="matrix(0.7071 -0.7071 0.7071 0.7071 -161.7313 385.1411)" fill="#D1AF4F" width="86.5" height="46.1"/>
		
			<rect x="367" y="400" transform="matrix(0.7071 -0.7071 0.7071 0.7071 -172.6024 411.3855)" fill="#E7C057" width="86.5" height="28.2"/>
		
			<rect x="369" y="406.4" transform="matrix(0.7071 -0.7071 0.7071 0.7071 -171.2917 408.2182)" fill="#A9895B" width="76.2" height="8.9"/>
		
			<rect x="375.3" y="412.7" transform="matrix(0.7071 -0.7071 0.7071 0.7071 -173.9122 414.553)" fill="#B99664" width="76.2" height="8.9"/>
		<path fill="#AB9040" d="M346.2,400.6c0.9,0.9,0.9,2.2,0,3.1c-0.9,0.9-2.2,0.9-3.1,0c-0.9-0.9-0.9-2.2,0-3.1
			C343.9,399.7,345.3,399.7,346.2,400.6z"/>
		<path fill="#AB9040" d="M371.3,425.7c0.9,0.9,0.9,2.2,0,3.1c-0.9,0.9-2.2,0.9-3.1,0c-0.9-0.9-0.9-2.2,0-3.1
			C369,424.8,370.4,424.8,371.3,425.7z"/>
		<path fill="#AB9040" d="M399.9,346.8c0.9,0.9,0.9,2.2,0,3.1c-0.9,0.9-2.2,0.9-3.1,0c-0.9-0.9-0.9-2.2,0-3.1
			C397.7,346,399,346,399.9,346.8z"/>
		<g>
			<defs>
				<path id="SVGID_7_" d="M366,423.5c2.1-2.1,5.4-2.1,7.4,0c0,0,0,0.1,0.1,0.1l46.3-46.3c0,0-0.1,0-0.1-0.1c-2.1-2.1-2.1-5.4,0-7.4
					c0,0,0.1,0,0.1-0.1L402.1,352c0,0,0,0.1-0.1,0.1c-2.1,2.1-5.4,2.1-7.4,0c0,0,0-0.1-0.1-0.1l-46.3,46.3c0,0,0.1,0,0.1,0.1
					c2.1,2.1,2.1,5.4,0,7.4c0,0-0.1,0-0.1,0.1L366,423.5C366,423.6,366,423.6,366,423.5z"/>
			</defs>
			<clipPath id="SVGID_8_">
				<use xlink:href="#SVGID_7_"  overflow="visible"/>
			</clipPath>
			<g clip-path="url(#SVGID_8_)">
				
					<rect x="336.4" y="373.8" transform="matrix(0.7071 -0.7071 0.7071 0.7071 -157.8002 375.6628)" fill="#A9895B" width="76.2" height="8.9"/>
				
					<rect x="342.8" y="380.2" transform="matrix(0.7071 -0.7071 0.7071 0.7071 -160.4207 381.9893)" fill="#B99664" width="76.2" height="8.9"/>
				
					<rect x="349.1" y="386.5" transform="matrix(0.7071 -0.7071 0.7071 0.7071 -163.0412 388.3001)" fill="#A9895B" width="76.2" height="8.9"/>
				
					<rect x="355.4" y="392.8" transform="matrix(0.7071 -0.7071 0.7071 0.7071 -165.6616 394.6333)" fill="#B99664" width="76.2" height="8.9"/>
			</g>
		</g>
		<path fill="#AB9040" d="M425,371.9c0.9,0.9,0.9,2.2,0,3.1c-0.9,0.9-2.2,0.9-3.1,0c-0.9-0.9-0.9-2.2,0-3.1
			C422.8,371.1,424.2,371.1,425,371.9z"/>
		<polygon fill="#E7C057" points="378.8,392 388.2,382.5 398.8,391.1 387.3,402.5 		"/>
		<path fill="#69502E" d="M383.4,390.8l3.9,1.7c-0.2,0.8,0,1.8,0.6,2.5c1,1,2.6,1,3.6,0c1-1,1-2.6,0-3.6c-0.7-0.7-1.6-0.9-2.5-0.6
			l-1.7-3.9L383.4,390.8z"/>
	</g>
</g>
<g>
	<path fill="#306CC2" d="M85.4,1079.3c-0.2-2.3,0.3-4.2,2.1-6.1c3-3.1,2.5-8.8-0.7-12.3c-1-1.1-1.4-2.1-1.4-3.5
		c0-11.8,0-23.5,0-35.3c0-1.5,0.3-2.6,1.3-3.8c3.4-4,3.6-8.3,0.4-12.4c-1.4-1.8-1.9-3.5-1.7-5.6c0.1-1.2,0-2.5,0-3.7
		c1.5,0,3,0,4.5,0c1.2,2.7,3.1,4.2,6.2,4.2c1.6,0,3.2,0.4,4.8,0.6c2.5,4.9,5.2,9.7,7.6,14.7c4.7,9.8,4.8,19.9,0.7,29.9
		c-2.1,5.1-5.6,9.5-8.4,14.2c-0.5,0.8-1.1,1.5-1.1,2.6c-0.2,3.2-0.6,6.4-0.9,9.7c-0.2,2.4-0.8,4.6-2.7,6.3c-0.1-1.2-0.2-2.4-0.3-3.6
		c0.1-0.8,0.3-1.5-1-1c-1.9,0.6-2.9,1.8-3,3.8c-0.7,1.2-1.1,2.5-1.3,3.9c-1.6,0.1-3.3,0.2-4.9,0.4
		C85.4,1081.2,85.4,1080.2,85.4,1079.3z M99.9,1044.7c-0.9,3.7,0,7.4-0.8,11.1c0.2,0.1,0.4,0.2,0.6,0.3c1.9-2.9,3.7-5.8,5.6-8.7
		c0.4-0.8,0.8-1.5,1.2-2.3c0.2-0.4,0.4-0.8,0.5-1.3c1.9-4.1,2.5-8.5,2.6-13c0-1.2-0.4-1.7-1.7-1.7c-2,0.1-4,0-5.9,0
		c-1.1,0-1.6,0.3-1.6,1.5c-0.1,3.4-0.2,6.7-0.4,10.1c0,0.9,0,1.7,0,2.6C100,1043.8,99.9,1044.2,99.9,1044.7z M106.7,1018.6
		c-1.1-2.2-2.2-4.5-3.3-6.7c-0.5-1-1.1-2-2-3.6c-0.3,3.2-0.7,5.8-0.5,8.4c0,1,0,2.1-0.1,3.1c0,0.4,0,0.9,0,1.3
		c0,0.8-0.1,1.6-0.1,2.4c-0.1,2.9-0.1,2.9,2.9,2.9c0.9,0,1.9,0,2.8,0c2.7,0,2.7,0,2.2-2.7c0-0.7-0.3-1.2-0.7-1.8
		C107.8,1020.9,107.3,1019.7,106.7,1018.6z M96.2,1034.3c1.2,0,1-1.4,1-2.3c0-0.9,0.4-2.2-1-2.2c-1.4,0-0.7,1.5-1,2.2
		C95.3,1032.9,94.8,1034.3,96.2,1034.3z"/>
	<path fill="#225B9E" d="M85.4,1082.1c0-1,0.1-1.9,0-2.9c-0.2-2.3,0.3-4.2,2.1-6.1c3-3.1,2.5-8.8-0.7-12.3c-1-1.1-1.4-2.1-1.4-3.5
		c0-11.8,0-23.5,0-35.3c0-1.5,0.3-2.6,1.3-3.8c3.4-4,3.6-8.3,0.4-12.4c-1.4-1.8-1.9-3.5-1.7-5.6c0.1-1.2,0-2.5,0-3.7
		c-0.8-0.4-1.7-0.2-2.6-0.2c-1.5,0-2.3,0.7-2.3,2.3c0.1,1.8,0,3.5,0,5.3c4.8,1.2,7.5,4.6,7,8.9c-0.5,4.1-3.2,6.2-7,7.1
		c0,12.6,0.1,25.2,0.1,37.8c0,0.7-0.1,1.3-0.1,2c3.3,0.3,5.4,2.3,6.6,5.2c1.2,2.9,0.4,5.6-1.5,8c-1.2,1.5-3.1,1.9-4.7,2.7
		c0,1.4,0,2.8,0,4.1c0,2.5,0.3,2.8,2.8,2.6C84.2,1082.2,84.8,1082.2,85.4,1082.1z"/>
	<path fill="#394249" d="M78.1,1019.6c-3.4-0.6-5.9-3.3-6.4-6.7c-0.5-3.3,1.3-6.7,4.3-8.2c1.4-0.7,3-0.8,4.5-0.9
		c4.8,1.2,7.5,4.6,7,8.9c-0.5,4.1-3.2,6.2-7,7.1C79.7,1019.7,78.9,1019.7,78.1,1019.6z M79.7,1017.6c3.1,0,5.7-2.7,5.7-5.8
		c0-3.2-2.6-5.7-5.8-5.6c-3.2,0-5.7,2.6-5.7,5.8C73.9,1015,76.6,1017.6,79.7,1017.6z"/>
	<path fill="#394249" d="M76.8,1074.9c-3.6-1.4-5.7-5.2-5-8.9c0.8-4.1,4-6.4,8.7-6.4c3.3,0.3,5.4,2.3,6.6,5.2c1.2,2.9,0.4,5.6-1.5,8
		c-1.2,1.5-3.1,1.9-4.7,2.7C79.5,1075.4,78.1,1075.4,76.8,1074.9z M79.7,1073.3c3.1,0,5.7-2.7,5.7-5.8c0-3.2-2.6-5.7-5.8-5.6
		c-3.2,0-5.7,2.6-5.7,5.7C73.9,1070.7,76.6,1073.3,79.7,1073.3z"/>
	<path fill="#E8485E" d="M89.8,996.4c1.2,2.7,3.1,4.2,6.2,4.2c1.6,0,3.2,0.4,4.8,0.6c-0.2-1-0.4-2-0.6-3.1c-1.6,0.3-3.1,0-4.7-0.1
		c-0.9-0.1-1.5-0.5-1.3-1.5c-1.3-0.1-2.7-0.1-4-0.2C90.1,996.4,90,996.4,89.8,996.4z"/>
	<path fill="#FAF6E9" d="M95.9,1078.7c-0.1-1.2-0.2-2.4-0.3-3.6c-1.7,0.4-3,1.4-4,2.7c-0.7,1.2-1.1,2.5-1.3,3.9
		C92.6,1081.5,94.5,1080.5,95.9,1078.7z"/>
	<path fill="#FBE876" d="M94.2,996.6c-0.1,1,0.4,1.4,1.3,1.5c1.6,0.2,3.1,0.4,4.7,0.1c0.2-0.6,0.1-1.1-0.2-1.7
		C98.1,996.5,96.1,996.5,94.2,996.6z"/>
	<path fill="#B3AAA0" d="M94.2,996.6c1.9,0,3.9,0,5.8,0c-3.3-0.8-6.6-0.5-9.8-0.2C91.5,996.4,92.9,996.5,94.2,996.6z"/>
	<path fill="#78DFFD" d="M107.1,1043.9c1.9-4.1,2.5-8.5,2.6-13c0-1.2-0.4-1.7-1.7-1.7c-2,0.1-4,0-5.9,0c-1.1,0-1.6,0.3-1.6,1.5
		c-0.1,3.4-0.2,6.7-0.4,10.1C102.4,1041.6,105.2,1041.7,107.1,1043.9z"/>
	<path fill="#9AE8FD" d="M99.9,1044.7c-0.9,3.7,0,7.4-0.8,11.1c0.2,0.1,0.4,0.2,0.6,0.3c1.9-2.9,3.7-5.8,5.6-8.7
		C104,1045.4,101.7,1045.7,99.9,1044.7z"/>
	<path fill="#78DFFD" d="M100.9,1021.3c0,0.8-0.1,1.6-0.1,2.4c-0.1,2.9-0.1,2.9,2.9,2.9c0.9,0,1.9,0,2.8,0c2.7,0,2.7,0,2.2-2.7
		C105.9,1023.4,103.5,1021.9,100.9,1021.3z"/>
	<path fill="#9AE8FD" d="M106.7,1018.6c-1.1-2.2-2.2-4.5-3.3-6.7c-0.5-1-1.1-2-2-3.6c-0.3,3.2-0.7,5.8-0.5,8.4
		C102.9,1017.5,104.7,1018.5,106.7,1018.6z"/>
	<path fill="#78DFFD" d="M106.7,1018.6c-2.1-0.2-3.9-1.2-5.8-1.8c0,1,0,2.1-0.1,3.1c2.5,0.2,4.6,1.9,7.1,2.2
		C107.8,1020.9,107.3,1019.7,106.7,1018.6z"/>
	<path fill="#9AE8FD" d="M107.1,1043.9c-1.9-2.1-4.6-2.3-7-3.1c0,0.9,0,1.7,0,2.6c2.3,0.1,4.2,1.8,6.5,1.8
		C106.7,1044.7,106.9,1044.3,107.1,1043.9z"/>
	<path fill="#9AE8FD" d="M108,1022.1c-2.5-0.3-4.6-1.9-7.1-2.2c0,0.4,0,0.9,0,1.3c2.7,0.7,5.1,2.1,7.8,2.6
		C108.6,1023.2,108.4,1022.6,108,1022.1z"/>
	<path fill="#78DFFD" d="M106.5,1045.1c-2.3,0-4.2-1.7-6.5-1.8c0,0.4,0,0.9-0.1,1.3c1.7,1,4.1,0.7,5.4,2.7
		C105.7,1046.6,106.1,1045.9,106.5,1045.1z"/>
	<path fill="#394249" d="M95.1,1031.9c0.2,1-0.3,2.4,1,2.4c1.2,0,1-1.4,1-2.3c0-0.9,0.4-2.2-1-2.2
		C94.8,1029.8,95.4,1031.2,95.1,1031.9z"/>
	<path fill="#E7935A" d="M91.6,1077.9c1-1.3,2.3-2.4,4-2.7c0.1-0.8,0.3-1.5-1-1C92.7,1074.7,91.7,1075.9,91.6,1077.9z"/>
	<path fill="#B4C3D4" d="M79.6,1006.1c3.2,0,5.8,2.5,5.8,5.6c0,3.1-2.6,5.8-5.7,5.8c-3.1,0-5.8-2.6-5.8-5.7
		C73.8,1008.7,76.4,1006.1,79.6,1006.1z M84.5,1011.7c-0.1-2.5-2.3-4.6-5-4.6c-2.5,0-4.7,2.2-4.7,4.6c0,2.5,2.2,4.7,4.9,4.7
		C82.3,1016.4,84.5,1014.2,84.5,1011.7z"/>
	<path fill="#B4C3D4" d="M79.6,1061.8c3.2,0,5.8,2.5,5.8,5.6c0,3.1-2.6,5.8-5.7,5.8c-3.1,0-5.8-2.6-5.8-5.7
		C73.9,1064.4,76.4,1061.8,79.6,1061.8z M84.5,1067.3c-0.1-2.5-2.4-4.6-5-4.6c-2.4,0-4.7,2.3-4.7,4.7c0,2.5,2.3,4.6,4.9,4.6
		C82.3,1072.1,84.5,1069.8,84.5,1067.3z"/>
	<path fill="#AAB8C9" d="M74.8,1011.7c0-2.4,2.2-4.6,4.7-4.6c2.7,0,4.9,2,5,4.6c0.1,2.5-2.2,4.7-4.8,4.7
		C77,1016.4,74.8,1014.3,74.8,1011.7z M79.9,1014.6c1.5-0.1,2.8-1.6,2.6-3c-0.2-1.7-1.3-2.6-3-2.7c-1.6,0-2.7,1.4-2.6,3.5
		C77.2,1013.8,78.2,1014.7,79.9,1014.6z"/>
	<path fill="#AAB8C9" d="M74.8,1067.4c0-2.4,2.2-4.6,4.7-4.7c2.6-0.1,4.9,2.1,5,4.6c0.1,2.5-2.2,4.7-4.8,4.7
		C77,1072.1,74.8,1069.9,74.8,1067.4z M79.7,1070.3c1.8,0,2.7-1.1,2.8-2.7c0.1-1.5-1.5-3.1-2.9-2.9c-1.7,0.2-2.7,1.1-2.6,3.2
		C77,1069.3,77.9,1070.3,79.7,1070.3z"/>
	<path fill="#FBFBFC" d="M77,1012.5c0.2,1.3,1.2,2.3,3,2.2c1.5-0.1,2.8-1.6,2.6-3c-0.2-1.7-1.3-2.6-3-2.7
		C77.9,1009,76.8,1010.4,77,1012.5z"/>
	<path fill="#FBFBFC" d="M76.9,1067.9c0.1,1.4,1,2.4,2.7,2.4c1.8,0,2.7-1.1,2.8-2.7c0.1-1.5-1.5-3.1-2.9-2.9
		C77.9,1064.8,76.9,1065.8,76.9,1067.9z"/>
</g>
<g>
	<path fill="#DD890E" d="M1061,61.8c-0.3,1-0.6,1.9-0.8,2.8c-0.1,0.2-0.1,0.3-0.3,0.3c-0.1,0-0.2,0-0.3,0c-13.9,0-27.8,0-41.7,0
		c-0.5,0-0.6,0.1-0.4,0.5c0.4,1.2,0.7,2.4,1,3.7c0.1,0.4,0.3,0.5,0.6,0.5c13,0,26.1,0,39.1,0c0.1,0,0.3,0,0.4,0
		c0.2,0,0.2,0.1,0.2,0.3c-0.2,0.9-0.4,1.7-0.7,2.6c0,0.2-0.1,0.3-0.3,0.2c-0.1,0-0.3,0-0.4,0c-12.5,0-24.9,0-37.4,0
		c-0.2,0-0.4,0-0.6,0c0.3,1,0.5,2,0.8,2.9c0,0.1,0.1,0.2,0.2,0.2c0.1,0,0.3,0,0.4,0c12,0,23.9,0,35.9,0c0.6,0,0.6,0,0.4,0.5
		c-0.2,0.7-0.5,1.4-0.6,2.2c-0.1,0.3-0.2,0.4-0.5,0.4c-2.8,0-5.6,0-8.5,0c-8.6,0-17.2,0-25.8,0c-0.6,0-0.6,0-0.4,0.5
		c0.3,1.2,0.7,2.4,1,3.6c0.1,0.4,0.3,0.5,0.7,0.5c10.5,0,21,0,31.6,0c0.6,0,0.6,0,0.5,0.6c-0.2,0.7-0.4,1.3-0.5,2
		c-0.1,0.4-0.2,0.5-0.6,0.5c-6,0-12,0-18,0c-4,0-8.1,0-12.1,0c-0.5,0-0.5,0.1-0.4,0.5c0.2,0.8,0.4,1.5,0.6,2.3
		c0.1,0.3,0.2,0.4,0.5,0.4c0.6,0,1.2,0,1.8,0c8.9,0,17.7,0,26.6,0c0.5,0,0.5,0.1,0.4,0.5c-0.2,0.7-0.4,1.4-0.5,2.1
		c-0.1,0.4-0.2,0.5-0.6,0.5c-2,0-4,0-6,0c-7.9,0-15.8,0-23.7,0c-0.5,0-0.7-0.1-0.8-0.6c-3.7-13.7-7.4-27.3-11.1-41
		c-0.1-0.4-0.1-0.5,0.4-0.5c0.7,0,1.5,0,2.2,0c0.3,0,0.5,0.1,0.6,0.4c0.3,1.3,0.7,2.5,1,3.8c0.1,0.4,0.3,0.5,0.6,0.5
		c10.5,0,20.9,0,31.4,0c5.1,0,10.3,0,15.4,0c0.4,0,0.6,0.1,0.4,0.5c-0.2,0.8-0.4,1.5-0.6,2.3c-0.1,0.3-0.2,0.4-0.4,0.3
		c-0.1,0-0.3,0-0.4,0c-15,0-29.9,0-44.9,0c-0.6,0-0.6,0-0.5,0.6c0.2,0.7,0.4,1.5,0.6,2.2c0.1,0.3,0.2,0.4,0.5,0.3c0.1,0,0.3,0,0.4,0
		c14.4,0,28.8,0,43.2,0C1060.6,61.8,1060.8,61.8,1061,61.8z"/>
	<path fill="#9B5E0E" d="M1074.9,69.5c0.4,0,0.5,0,0.4,0.5c-0.8,2.8-1.6,5.7-2.4,8.6c-0.1,0.3-0.3,0.3-0.5,0.3c-3.3,0-6.6,0-9.9,0
		c-0.4,0-0.5,0.1-0.6,0.5c-0.3,1.2-0.6,2.4-1,3.6c-0.1,0.5-0.1,0.5,0.4,0.5c3.2,0,6.4,0,9.7,0c0.7,0,0.7,0,0.5,0.6
		c-0.7,2.7-1.5,5.4-2.2,8.1c-0.1,0.4-0.3,0.6-0.7,0.6c-2.1,0-4.3,0-6.4,0s-4.3,0-6.4,0c-0.5,0-0.6-0.1-0.4-0.5
		c2.5-9.2,5-18.3,7.5-27.5c1.2-4.5,2.4-9,3.6-13.5c0.1-0.4,0.2-0.5,0.7-0.5c0.7,0,1.5,0,2.2,0c0.4,0,0.4,0.1,0.3,0.4
		c-0.4,1.3-0.7,2.5-1,3.8c-0.1,0.4,0,0.5,0.3,0.5c3.2,0,6.4,0,9.6,0c0.6,0,0.7,0.1,0.5,0.7c-0.2,1-0.5,1.9-0.8,2.9
		c-0.5,1.8-1,3.6-1.4,5.4c-0.1,0.3-0.3,0.4-0.5,0.4c-3.3,0-6.6,0-9.9,0c-0.3,0-0.5,0.1-0.6,0.4c-0.3,1.3-0.7,2.6-1,3.8 M1059,89.8
		c2.5,0,5,0,7.4,0c0.2,0,0.3-0.1,0.3-0.3c0.2-0.9,0.5-1.7,0.7-2.6c0.1-0.2,0-0.3-0.2-0.3c-2.4,0-4.7,0-7.1,0c-0.1,0-0.3,0-0.3,0.2
		C1059.6,87.8,1059.3,88.8,1059,89.8z M1071.3,72.7c-2.5,0-4.9,0-7.4,0c-0.2,0-0.2,0.1-0.3,0.2c-0.3,1-0.5,1.9-0.8,2.9
		c2.5,0,4.9,0,7.4,0c0.2,0,0.3-0.1,0.3-0.2C1070.8,74.6,1071,73.7,1071.3,72.7z M1075.1,58.6c-2.5,0-4.9,0-7.3,0
		c-0.2,0-0.2,0.1-0.3,0.3c-0.2,0.9-0.5,1.7-0.7,2.6c-0.1,0.2,0,0.3,0.2,0.3c2.3,0,4.7,0,7,0c0.2,0,0.3,0,0.3-0.2
		C1074.5,60.6,1074.8,59.6,1075.1,58.6z"/>
	<path fill="#030303" d="M1004.2,104.8c0-3.8,0-7.6,0-11.4c0-0.4,0.1-0.5,0.5-0.5c0.7,0,1.4,0,2.1,0c0.4,0,0.5,0.1,0.5,0.5
		c0,3.3,0,6.6,0,9.9c0,3.7,0,7.3,0,11c0,0.4,0.1,0.5,0.5,0.5c7,0,14,0,21,0c0.4,0,0.5-0.1,0.6-0.5c0.9-5.1,5.4-8.8,10.6-8.9
		c5.2,0,9.8,3.7,10.8,8.8c1.2,6.3-3.1,12.2-9.5,13c-5.6,0.6-10.9-3.2-11.9-8.8c-0.1-0.4-0.2-0.5-0.6-0.5c-7.6,0-15.1,0-22.7,0
		c-1.3,0-1.9-0.6-1.9-1.9C1004.2,112.2,1004.2,108.5,1004.2,104.8z M1040,124c4.3,0,7.8-3.4,7.8-7.7c0-4.4-3.5-7.8-7.8-7.8
		c-4.3,0-7.8,3.5-7.8,7.8C1032.2,120.6,1035.7,124,1040,124z"/>
	<path fill="#9B5E0E" d="M1017.4,86.7c-2,0-3.9,0-5.9,0c0.3,1,0.6,2,0.8,2.9c0.1,0.3,0.3,0.2,0.4,0.2c1.7,0,3.4,0,5.1,0
		c0.4,0,0.5,0.1,0.6,0.5c0.2,0.8,0.4,1.5,0.6,2.3c0.1,0.3,0,0.4-0.3,0.4c-2.8,0-5.5,0-8.3,0c-0.3,0-0.4-0.1-0.5-0.4
		c-0.5-1.8-1-3.6-1.5-5.4c-0.3-1-0.5-2.1-0.8-3.1c-0.1-0.3-0.1-0.5,0.3-0.5c2.8,0,5.5,0,8.3,0c0.3,0,0.4,0.1,0.5,0.3
		C1016.9,84.8,1017.2,85.7,1017.4,86.7z"/>
	<path fill="#9B5E0E" d="M1015.4,78.9c-1.1,0-2.1,0-3.2,0c-1.3,0-2.6,0-3.9,0c-0.3,0-0.4-0.1-0.5-0.4c-0.5-1.8-0.9-3.6-1.4-5.4
		c-0.3-1.1-0.6-2.1-0.9-3.2c-0.1-0.3,0-0.4,0.3-0.4c2.2,0,4.5,0,6.7,0c0.2,0,0.3,0,0.4,0.2c0.2,1,0.5,1.9,0.7,2.9
		c-1.5,0-2.8,0-4.3,0c0.3,1,0.5,1.9,0.8,2.8c0.1,0.3,0.2,0.3,0.4,0.3c1.2,0,2.3,0,3.5,0c0.3,0,0.4,0.1,0.5,0.4
		C1014.8,77.1,1015.1,77.9,1015.4,78.9z"/>
	<path fill="#9B5E0E" d="M1007.9,64.9c-1.1,0-2.2,0-3.2,0c-0.3,0-0.5-0.1-0.6-0.4c-0.5-1.8-0.9-3.6-1.5-5.4c-0.3-1-0.5-2.1-0.8-3.1
		c-0.1-0.3-0.1-0.4,0.3-0.4c2.2,0,4.4,0,6.6,0c0.2,0,0.4,0.1,0.5,0.3c0.2,0.8,0.5,1.7,0.7,2.5c0.1,0.3,0,0.3-0.2,0.3
		c-1.2,0-2.3,0-3.5,0c-0.4,0-0.5,0.1-0.4,0.5c0.2,0.7,0.4,1.5,0.6,2.2c0.1,0.3,0.2,0.5,0.6,0.5c1.1,0,2.3,0,3.4,0
		c0.3,0,0.5,0.1,0.5,0.4c0.2,0.8,0.5,1.6,0.7,2.3c0.1,0.4,0,0.4-0.3,0.4C1010.1,64.8,1009,64.9,1007.9,64.9z"/>
	<path fill="#F9BC50" d="M1040,124c-4.3,0-7.8-3.4-7.8-7.8c0-4.3,3.5-7.8,7.8-7.8c4.3,0,7.8,3.5,7.8,7.8
		C1047.8,120.6,1044.3,124,1040,124z"/>
</g>
<rect x="405" y="616.4" transform="matrix(0.7071 -0.7071 0.7071 0.7071 -289.478 684.7067)" fill="#A61C00" stroke="#000000" stroke-width="3" stroke-miterlimit="10" width="553.6" height="150.8"/>
<text transform="matrix(0.7135 -0.7135 0.7071 0.7071 569.0739 831.4223)" fill="#FFFFFF" font-family="'Poppins-Bold'" font-size="61.6498px">MONOPOLY</text>
</svg>
